<?xml version="1.0" standalone="no"?>
<!DOCTYPE svg PUBLIC "-//W3C//DTD SVG 20010904//EN"
 "http://www.w3.org/TR/2001/REC-SVG-20010904/DTD/svg10.dtd">
<svg version="1.0" xmlns="http://www.w3.org/2000/svg"
 width="700.000000pt" height="700.000000pt" viewBox="0 0 700.000000 700.000000"
 preserveAspectRatio="xMidYMid meet">
<metadata>
Created by potrace 1.11, written by Peter Selinger 2001-2013
</metadata>
<g transform="translate(0.000000,700.000000) scale(0.100000,-0.100000)"
fill="#000000" stroke="none">
<path d="M3370 6984 c0 -14 153 -560 159 -566 5 -6 163 543 161 565 0 8 -320
10 -320 1z"/>
<path d="M2878 6936 c-65 -12 -120 -25 -123 -28 -6 -5 274 -498 296 -522 5 -6
9 115 9 282 l0 292 -32 -1 c-18 0 -86 -11 -150 -23z"/>
<path d="M4000 6663 c0 -179 4 -292 9 -283 5 8 75 127 155 265 132 227 143
251 125 257 -10 4 -70 17 -132 28 -61 11 -122 23 -134 26 l-23 4 0 -297z"/>
<path d="M2330 6791 c-138 -50 -160 -59 -160 -66 0 -3 91 -101 202 -218 110
-117 212 -223 225 -237 l23 -24 -20 68 c-10 37 -47 169 -81 292 -35 123 -67
224 -73 223 -6 0 -58 -17 -116 -38z"/>
<path d="M4596 6793 c-34 -115 -146 -526 -143 -529 7 -7 425 441 418 448 -8
10 -241 98 -257 98 -7 0 -15 -8 -18 -17z"/>
<path d="M1768 6532 c-65 -37 -118 -69 -118 -72 1 -7 544 -379 548 -375 7 6
-293 514 -303 515 -5 0 -63 -30 -127 -68z"/>
<path d="M5143 6567 c-6 -6 -68 -111 -138 -232 -70 -121 -135 -231 -144 -245
-12 -18 4 -11 64 31 44 31 163 114 265 183 102 70 186 131 188 135 1 5 -39 33
-90 63 -134 79 -134 80 -145 65z"/>
<path d="M1313 6221 c-57 -45 -105 -86 -108 -90 -3 -5 12 -16 33 -24 20 -9
169 -74 330 -145 l293 -130 -123 129 c-68 72 -168 178 -223 236 l-101 106
-101 -82z"/>
<path d="M5589 6240 c-13 -16 -107 -115 -208 -220 l-183 -190 113 51 c63 28
203 89 312 137 108 48 196 90 195 94 -5 13 -182 158 -194 158 -6 0 -22 -13
-35 -30z"/>
<path d="M3428 6089 c-16 -9 -18 -28 -18 -174 l0 -164 -32 -5 c-18 -3 -121 -8
-228 -11 -107 -3 -223 -8 -257 -11 l-63 -6 0 46 0 46 -450 0 -450 0 0 -235 c0
-227 -1 -235 -21 -247 -56 -34 -421 -493 -577 -725 -39 -58 -69 -93 -80 -93
-9 0 -242 18 -517 40 -275 22 -512 40 -527 40 -24 0 -29 -7 -47 -62 -29 -88
-83 -309 -77 -315 3 -3 268 60 590 139 322 80 586 144 586 142 0 -1 -19 -33
-42 -70 -23 -38 -66 -119 -95 -181 -53 -108 -55 -112 -91 -117 -20 -3 -248
-22 -507 -42 -259 -21 -472 -39 -474 -40 -15 -12 -53 -494 -39 -494 3 0 236
101 518 225 l512 225 2464 0 c1865 0 2463 3 2458 12 -12 19 10 10 456 -187
234 -103 460 -202 503 -221 l78 -34 -6 93 c-7 100 -35 380 -40 385 -2 2 -586
51 -930 78 l-90 7 -67 136 c-75 153 -215 372 -371 578 -114 151 -337 421 -386
467 l-31 30 0 233 0 233 -450 0 -450 0 0 -35 c0 -34 -1 -35 -37 -35 -21 0
-152 7 -290 16 l-253 17 0 153 c0 141 -2 154 -19 164 -25 13 -131 13 -153 -1z
m-1098 -489 l0 -130 -160 0 -160 0 0 130 0 130 160 0 160 0 0 -130z m420 0 l0
-130 -160 0 -160 0 0 130 0 130 160 0 160 0 0 -130z m1830 0 l0 -130 -160 0
-160 0 0 130 0 130 160 0 160 0 0 -130z m410 0 l0 -130 -160 0 -160 0 0 130 0
130 160 0 160 0 0 -130z m-1590 65 c0 -44 20 -55 104 -55 88 0 96 4 96 52 l0
40 79 -3 c61 -3 86 -9 108 -25 44 -33 53 -60 53 -171 l0 -101 99 -4 c107 -3
142 -18 168 -69 20 -37 18 -351 -2 -389 -32 -61 -22 -60 -608 -60 -533 0 -534
0 -562 22 -47 37 -55 72 -55 240 0 126 3 159 18 187 26 53 71 71 173 71 l86 0
5 110 c4 91 8 116 25 138 26 35 72 51 151 51 l62 1 0 -35z m-1070 -420 l0
-125 -160 0 -160 0 0 125 0 125 160 0 160 0 0 -125z m420 0 l0 -125 -160 0
-160 0 0 125 0 125 160 0 160 0 0 -125z m1830 0 l0 -125 -160 0 -160 0 0 125
0 125 160 0 160 0 0 -125z m410 0 l0 -125 -160 0 -160 0 0 125 0 125 160 0
160 0 0 -125z m-2660 -350 l0 -125 -160 0 -160 0 0 125 0 125 160 0 160 0 0
-125z m420 0 l0 -125 -160 0 -160 0 0 125 0 125 160 0 160 0 0 -125z m1830 0
l0 -125 -160 0 -160 0 0 125 0 125 160 0 160 0 0 -125z m410 0 l0 -125 -160 0
-160 0 0 125 0 125 160 0 160 0 0 -125z m-2660 -350 l0 -125 -160 0 -160 0 0
125 0 125 160 0 160 0 0 -125z m420 0 l0 -125 -160 0 -160 0 0 125 0 125 160
0 160 0 0 -125z m1830 0 l0 -125 -160 0 -160 0 0 125 0 125 160 0 160 0 0
-125z m410 0 l0 -125 -160 0 -160 0 0 125 0 125 160 0 160 0 0 -125z m-3250
-155 l0 -220 -220 0 c-121 0 -220 3 -220 6 0 14 108 197 184 311 l81 123 88 0
87 0 0 -220z m3767 118 c76 -111 193 -309 193 -327 0 -8 -67 -11 -215 -11
l-215 0 0 220 0 220 83 0 84 0 70 -102z m-1570 29 c15 -15 18 -36 18 -138 0
-174 45 -159 -456 -159 -495 0 -449 -16 -449 158 0 123 6 146 45 155 11 3 201
4 422 4 372 -2 404 -3 420 -20z"/>
<path d="M919 5851 c-45 -50 -86 -96 -91 -104 -6 -12 61 -32 373 -110 210 -52
377 -92 373 -87 -10 8 -542 373 -561 383 -7 5 -44 -28 -94 -82z"/>
<path d="M5762 5738 c-145 -99 -261 -182 -259 -184 2 -3 160 34 351 82 l346
86 -63 71 c-34 38 -73 82 -87 98 l-25 28 -263 -181z"/>
<path d="M578 5412 c-64 -98 -74 -118 -60 -124 20 -7 841 -72 847 -66 5 4
-686 308 -700 308 -5 0 -45 -53 -87 -118z"/>
<path d="M6023 5371 c-182 -80 -326 -147 -318 -149 11 -3 757 55 793 61 7 1
-18 49 -64 117 -42 63 -77 115 -77 116 -1 1 -151 -65 -334 -145z"/>
<path d="M339 4986 c-26 -55 -57 -125 -69 -154 l-20 -53 52 6 c59 6 921 74
965 76 28 1 -247 73 -661 174 l-218 53 -49 -102z"/>
<path d="M6175 4965 c-225 -56 -396 -103 -380 -104 17 -1 227 -17 469 -36 241
-19 449 -35 462 -35 l24 0 -21 53 c-11 28 -39 91 -61 140 -33 70 -45 87 -62
86 -12 -1 -205 -47 -431 -104z"/>
<path d="M6315 4550 c-253 -21 -480 -39 -505 -40 -33 -1 113 -41 530 -145 316
-79 577 -141 579 -139 4 4 -18 98 -61 252 -30 107 -32 112 -57 111 -14 -1
-233 -19 -486 -39z"/>
<path d="M5956 3703 c-3 -4 -6 -18 -6 -32 0 -14 -6 -54 -13 -88 l-13 -62 339
-233 c186 -128 412 -283 501 -345 88 -62 164 -112 167 -112 16 -2 55 293 65
486 l7 130 -24 6 c-13 4 -242 61 -509 127 -267 66 -490 122 -497 124 -6 3 -14
2 -17 -1z"/>
<path d="M510 3562 c-278 -70 -506 -127 -507 -127 -1 -1 2 -70 8 -155 9 -139
37 -369 57 -458 l7 -33 396 273 c217 150 446 307 507 348 92 61 111 79 107 95
-3 11 -13 57 -22 103 -12 62 -20 82 -32 81 -9 0 -243 -58 -521 -127z"/>
<path d="M5788 3209 c-15 -33 -35 -62 -45 -65 -10 -3 -45 -17 -78 -30 -55 -22
-74 -24 -216 -24 l-157 0 -3 -127 c-4 -119 -6 -131 -32 -176 -29 -49 -93 -103
-134 -113 -40 -10 -74 5 -128 60 -60 60 -85 122 -85 212 l0 51 47 6 c37 4 54
12 75 36 15 17 28 36 28 41 0 6 -116 10 -318 10 l-319 0 -12 -40 c-15 -52 -61
-103 -115 -130 -43 -20 -50 -20 -803 -18 l-760 3 -49 30 c-39 25 -55 43 -79
93 l-30 61 -318 1 -318 0 16 -30 c18 -35 62 -60 105 -60 l30 0 0 -64 c0 -34
-5 -78 -12 -97 -19 -57 -66 -117 -114 -145 -63 -37 -100 -28 -169 39 -67 66
-85 120 -85 259 l0 98 -151 0 c-146 0 -155 1 -235 31 -75 29 -84 35 -100 71
-10 21 -21 41 -26 44 -4 3 -157 -61 -340 -141 -183 -80 -432 -189 -553 -242
-121 -53 -221 -97 -222 -98 -3 -2 43 -185 68 -268 17 -57 23 -67 37 -62 33 14
219 17 287 6 38 -7 130 -32 207 -57 150 -48 226 -56 266 -28 12 8 22 25 22 38
0 53 -125 193 -225 252 -25 14 -45 28 -45 31 0 10 122 -8 188 -29 37 -11 136
-51 221 -89 185 -84 234 -97 293 -80 107 33 168 82 152 125 -6 16 -56 57 -114
93 l-35 22 30 1 c31 0 114 -22 219 -59 63 -22 118 -26 179 -12 38 9 38 9 21
-10 -17 -19 -17 -20 2 -13 26 9 25 9 -176 -162 -176 -149 -1033 -885 -1059
-910 -12 -11 -8 -21 25 -70 127 -184 405 -487 589 -642 514 -432 1102 -699
1765 -799 207 -31 574 -42 792 -24 1004 85 1907 588 2518 1402 55 73 100 137
100 141 0 6 -578 507 -1113 966 -49 41 -99 84 -110 94 l-22 19 25 -11 25 -11
-25 22 -25 22 31 -7 c77 -17 149 -9 255 27 57 19 129 38 159 41 l55 7 -33 -16
c-53 -23 -131 -88 -138 -113 -10 -38 19 -67 103 -102 73 -30 80 -32 128 -21
27 7 127 46 220 87 179 80 299 117 362 112 l38 -3 -48 -28 c-118 -70 -241
-222 -216 -269 27 -50 113 -47 288 11 174 58 305 78 413 63 l57 -8 30 110 c17
61 37 139 45 172 l14 62 -207 90 c-320 141 -790 347 -852 375 l-55 24 -26 -58z"/>
<path d="M184 2384 c13 -53 107 -282 119 -292 18 -14 181 -52 224 -52 21 0 49
7 62 16 49 34 0 134 -100 204 -55 39 -235 130 -288 145 -22 7 -23 5 -17 -21z"/>
<path d="M6745 2366 c-198 -90 -279 -154 -304 -243 -18 -63 38 -94 134 -73
127 28 125 27 152 88 35 79 94 243 91 252 -2 4 -34 -7 -73 -24z"/>
</g>
</svg>
